<mxfile host="app.diagrams.net" modified="2022-01-26T19:45:22.972Z" agent="5.0 (Windows NT 10.0; Win64; x64) AppleWebKit/537.36 (KHTML, like Gecko) Chrome/97.0.4692.99 Safari/537.36" etag="MaIlR0mlb_f4U8z2zQJA" version="16.4.7" type="github">
  <diagram id="HulPGH48MOJRQ9pYyKQ1" name="Page-1">
    <mxGraphModel dx="1278" dy="589" grid="1" gridSize="10" guides="1" tooltips="1" connect="1" arrows="1" fold="1" page="1" pageScale="1" pageWidth="850" pageHeight="1100" math="0" shadow="0">
      <root>
        <mxCell id="0" />
        <mxCell id="1" parent="0" />
        <mxCell id="4xEq2jijBpp5c2q7PLIP-1" value="" style="rounded=0;whiteSpace=wrap;html=1;fontStyle=1" parent="1" vertex="1">
          <mxGeometry x="70" y="20" width="770" height="60" as="geometry" />
        </mxCell>
        <mxCell id="4xEq2jijBpp5c2q7PLIP-2" value="PHASE 1&lt;br&gt;Formation" style="text;html=1;strokeColor=none;fillColor=none;align=center;verticalAlign=middle;whiteSpace=wrap;rounded=0;fontStyle=1" parent="1" vertex="1">
          <mxGeometry x="70" y="20" width="90" height="60" as="geometry" />
        </mxCell>
        <mxCell id="4xEq2jijBpp5c2q7PLIP-3" value="PHASE 2&lt;br&gt;Requirement/Planning" style="text;html=1;strokeColor=none;fillColor=none;align=center;verticalAlign=middle;whiteSpace=wrap;rounded=0;fontStyle=1" parent="1" vertex="1">
          <mxGeometry x="180" y="20" width="100" height="60" as="geometry" />
        </mxCell>
        <mxCell id="4xEq2jijBpp5c2q7PLIP-4" value="PHASE 3&lt;br&gt;Design" style="text;html=1;strokeColor=none;fillColor=none;align=center;verticalAlign=middle;whiteSpace=wrap;rounded=0;fontStyle=1" parent="1" vertex="1">
          <mxGeometry x="285" y="20" width="100" height="60" as="geometry" />
        </mxCell>
        <mxCell id="4xEq2jijBpp5c2q7PLIP-5" value="PHASE 4&lt;br&gt;Construct" style="text;html=1;strokeColor=none;fillColor=none;align=center;verticalAlign=middle;whiteSpace=wrap;rounded=0;fontStyle=1" parent="1" vertex="1">
          <mxGeometry x="391" y="20" width="100" height="60" as="geometry" />
        </mxCell>
        <mxCell id="4xEq2jijBpp5c2q7PLIP-6" value="PHASE 5&lt;br&gt;Test" style="text;html=1;strokeColor=none;fillColor=none;align=center;verticalAlign=middle;whiteSpace=wrap;rounded=0;fontStyle=1" parent="1" vertex="1">
          <mxGeometry x="500" y="20" width="100" height="60" as="geometry" />
        </mxCell>
        <mxCell id="4xEq2jijBpp5c2q7PLIP-7" value="PHASE 6&lt;br&gt;Product release" style="text;html=1;strokeColor=none;fillColor=none;align=center;verticalAlign=middle;whiteSpace=wrap;rounded=0;fontStyle=1" parent="1" vertex="1">
          <mxGeometry x="610" y="20" width="100" height="60" as="geometry" />
        </mxCell>
        <mxCell id="4xEq2jijBpp5c2q7PLIP-8" value="PHASE 7&lt;br&gt;Post Implementation&amp;nbsp;" style="text;html=1;strokeColor=none;fillColor=none;align=center;verticalAlign=middle;whiteSpace=wrap;rounded=0;fontStyle=1" parent="1" vertex="1">
          <mxGeometry x="720" y="20" width="120" height="60" as="geometry" />
        </mxCell>
        <mxCell id="4xEq2jijBpp5c2q7PLIP-9" value="" style="edgeStyle=orthogonalEdgeStyle;rounded=0;orthogonalLoop=1;jettySize=auto;html=1;fontStyle=1" parent="1" source="4xEq2jijBpp5c2q7PLIP-11" target="4xEq2jijBpp5c2q7PLIP-14" edge="1">
          <mxGeometry relative="1" as="geometry" />
        </mxCell>
        <mxCell id="4xEq2jijBpp5c2q7PLIP-10" value="" style="edgeStyle=orthogonalEdgeStyle;rounded=0;orthogonalLoop=1;jettySize=auto;html=1;endArrow=classic;endFill=1;fontStyle=1" parent="1" source="4xEq2jijBpp5c2q7PLIP-11" target="4xEq2jijBpp5c2q7PLIP-29" edge="1">
          <mxGeometry relative="1" as="geometry" />
        </mxCell>
        <mxCell id="4xEq2jijBpp5c2q7PLIP-11" value="Project Initiation&amp;nbsp;" style="rounded=0;whiteSpace=wrap;html=1;fontStyle=1" parent="1" vertex="1">
          <mxGeometry x="70" y="120" width="90" height="60" as="geometry" />
        </mxCell>
        <mxCell id="4xEq2jijBpp5c2q7PLIP-12" value="" style="edgeStyle=orthogonalEdgeStyle;rounded=0;orthogonalLoop=1;jettySize=auto;html=1;fontStyle=1" parent="1" source="4xEq2jijBpp5c2q7PLIP-14" target="4xEq2jijBpp5c2q7PLIP-17" edge="1">
          <mxGeometry relative="1" as="geometry" />
        </mxCell>
        <mxCell id="4xEq2jijBpp5c2q7PLIP-13" value="" style="edgeStyle=orthogonalEdgeStyle;rounded=0;orthogonalLoop=1;jettySize=auto;html=1;entryX=0.5;entryY=0;entryDx=0;entryDy=0;startArrow=none;startFill=0;endArrow=classic;endFill=1;fontStyle=1" parent="1" source="4xEq2jijBpp5c2q7PLIP-14" target="4xEq2jijBpp5c2q7PLIP-47" edge="1">
          <mxGeometry relative="1" as="geometry" />
        </mxCell>
        <mxCell id="4xEq2jijBpp5c2q7PLIP-14" value="Requirements Definition" style="rounded=0;whiteSpace=wrap;html=1;fontStyle=1" parent="1" vertex="1">
          <mxGeometry x="180" y="120" width="90" height="60" as="geometry" />
        </mxCell>
        <mxCell id="4xEq2jijBpp5c2q7PLIP-15" value="" style="edgeStyle=orthogonalEdgeStyle;rounded=0;orthogonalLoop=1;jettySize=auto;html=1;fontStyle=1" parent="1" source="4xEq2jijBpp5c2q7PLIP-17" target="4xEq2jijBpp5c2q7PLIP-20" edge="1">
          <mxGeometry relative="1" as="geometry" />
        </mxCell>
        <mxCell id="4xEq2jijBpp5c2q7PLIP-16" value="" style="edgeStyle=orthogonalEdgeStyle;rounded=0;orthogonalLoop=1;jettySize=auto;html=1;fontStyle=1" parent="1" source="4xEq2jijBpp5c2q7PLIP-17" target="4xEq2jijBpp5c2q7PLIP-42" edge="1">
          <mxGeometry relative="1" as="geometry" />
        </mxCell>
        <mxCell id="4xEq2jijBpp5c2q7PLIP-17" value="Design" style="rounded=0;whiteSpace=wrap;html=1;fontStyle=1" parent="1" vertex="1">
          <mxGeometry x="290" y="120" width="90" height="60" as="geometry" />
        </mxCell>
        <mxCell id="4xEq2jijBpp5c2q7PLIP-18" value="" style="edgeStyle=orthogonalEdgeStyle;rounded=0;orthogonalLoop=1;jettySize=auto;html=1;fontStyle=1" parent="1" source="4xEq2jijBpp5c2q7PLIP-20" target="4xEq2jijBpp5c2q7PLIP-23" edge="1">
          <mxGeometry relative="1" as="geometry" />
        </mxCell>
        <mxCell id="4xEq2jijBpp5c2q7PLIP-19" value="" style="edgeStyle=orthogonalEdgeStyle;rounded=0;orthogonalLoop=1;jettySize=auto;html=1;fontStyle=1" parent="1" source="4xEq2jijBpp5c2q7PLIP-20" target="4xEq2jijBpp5c2q7PLIP-39" edge="1">
          <mxGeometry relative="1" as="geometry" />
        </mxCell>
        <mxCell id="4xEq2jijBpp5c2q7PLIP-20" value="Construct" style="rounded=0;whiteSpace=wrap;html=1;fontStyle=1" parent="1" vertex="1">
          <mxGeometry x="400" y="120" width="90" height="60" as="geometry" />
        </mxCell>
        <mxCell id="4xEq2jijBpp5c2q7PLIP-21" value="" style="edgeStyle=orthogonalEdgeStyle;rounded=0;orthogonalLoop=1;jettySize=auto;html=1;fontStyle=1" parent="1" source="4xEq2jijBpp5c2q7PLIP-23" target="4xEq2jijBpp5c2q7PLIP-26" edge="1">
          <mxGeometry relative="1" as="geometry" />
        </mxCell>
        <mxCell id="4xEq2jijBpp5c2q7PLIP-22" value="" style="edgeStyle=orthogonalEdgeStyle;rounded=0;orthogonalLoop=1;jettySize=auto;html=1;entryX=0.5;entryY=0;entryDx=0;entryDy=0;fontStyle=1" parent="1" source="4xEq2jijBpp5c2q7PLIP-23" target="4xEq2jijBpp5c2q7PLIP-36" edge="1">
          <mxGeometry relative="1" as="geometry" />
        </mxCell>
        <mxCell id="4xEq2jijBpp5c2q7PLIP-23" value="Test" style="rounded=0;whiteSpace=wrap;html=1;fontStyle=1" parent="1" vertex="1">
          <mxGeometry x="510" y="120" width="100" height="60" as="geometry" />
        </mxCell>
        <mxCell id="4xEq2jijBpp5c2q7PLIP-24" value="" style="edgeStyle=orthogonalEdgeStyle;rounded=0;orthogonalLoop=1;jettySize=auto;html=1;fontStyle=1" parent="1" source="4xEq2jijBpp5c2q7PLIP-26" target="4xEq2jijBpp5c2q7PLIP-28" edge="1">
          <mxGeometry relative="1" as="geometry" />
        </mxCell>
        <mxCell id="4xEq2jijBpp5c2q7PLIP-25" value="" style="edgeStyle=orthogonalEdgeStyle;rounded=0;orthogonalLoop=1;jettySize=auto;html=1;fontStyle=1" parent="1" source="4xEq2jijBpp5c2q7PLIP-26" target="4xEq2jijBpp5c2q7PLIP-33" edge="1">
          <mxGeometry relative="1" as="geometry" />
        </mxCell>
        <mxCell id="4xEq2jijBpp5c2q7PLIP-26" value="Product Release" style="rounded=0;whiteSpace=wrap;html=1;fontStyle=1" parent="1" vertex="1">
          <mxGeometry x="630" y="120" width="90" height="60" as="geometry" />
        </mxCell>
        <mxCell id="4xEq2jijBpp5c2q7PLIP-27" value="" style="edgeStyle=orthogonalEdgeStyle;rounded=0;orthogonalLoop=1;jettySize=auto;html=1;fontStyle=1" parent="1" source="4xEq2jijBpp5c2q7PLIP-28" target="4xEq2jijBpp5c2q7PLIP-31" edge="1">
          <mxGeometry relative="1" as="geometry" />
        </mxCell>
        <mxCell id="4xEq2jijBpp5c2q7PLIP-28" value="Enhancement Maintenance&amp;nbsp;" style="rounded=0;whiteSpace=wrap;html=1;fontStyle=1" parent="1" vertex="1">
          <mxGeometry x="735" y="120" width="90" height="60" as="geometry" />
        </mxCell>
        <mxCell id="4xEq2jijBpp5c2q7PLIP-29" value="Buying Plot/Area for shop" style="rounded=0;whiteSpace=wrap;html=1;fontStyle=1" parent="1" vertex="1">
          <mxGeometry x="70" y="210" width="90" height="150" as="geometry" />
        </mxCell>
        <mxCell id="4xEq2jijBpp5c2q7PLIP-30" value="" style="edgeStyle=orthogonalEdgeStyle;rounded=0;orthogonalLoop=1;jettySize=auto;html=1;fontSize=14;startArrow=none;startFill=0;endArrow=classic;endFill=1;strokeWidth=2;" parent="1" source="4xEq2jijBpp5c2q7PLIP-31" target="4xEq2jijBpp5c2q7PLIP-53" edge="1">
          <mxGeometry relative="1" as="geometry" />
        </mxCell>
        <mxCell id="4xEq2jijBpp5c2q7PLIP-31" value="Furniture, accessories etc" style="rounded=0;whiteSpace=wrap;html=1;fontStyle=1" parent="1" vertex="1">
          <mxGeometry x="730" y="210" width="100" height="60" as="geometry" />
        </mxCell>
        <mxCell id="4xEq2jijBpp5c2q7PLIP-32" value="" style="edgeStyle=orthogonalEdgeStyle;rounded=0;orthogonalLoop=1;jettySize=auto;html=1;endArrow=none;endFill=0;fontStyle=1" parent="1" source="4xEq2jijBpp5c2q7PLIP-33" target="4xEq2jijBpp5c2q7PLIP-34" edge="1">
          <mxGeometry relative="1" as="geometry" />
        </mxCell>
        <mxCell id="4xEq2jijBpp5c2q7PLIP-33" value="Operational Acceptance&lt;br&gt;Can start selling in the area&amp;nbsp;" style="rounded=0;whiteSpace=wrap;html=1;fontStyle=1" parent="1" vertex="1">
          <mxGeometry x="630" y="210" width="90" height="70" as="geometry" />
        </mxCell>
        <mxCell id="4xEq2jijBpp5c2q7PLIP-34" value="Acceptance Document by owner" style="rounded=0;whiteSpace=wrap;html=1;fontStyle=1" parent="1" vertex="1">
          <mxGeometry x="630" y="290" width="90" height="60" as="geometry" />
        </mxCell>
        <mxCell id="4xEq2jijBpp5c2q7PLIP-35" value="" style="edgeStyle=orthogonalEdgeStyle;rounded=0;orthogonalLoop=1;jettySize=auto;html=1;endArrow=none;endFill=0;fontStyle=1" parent="1" source="4xEq2jijBpp5c2q7PLIP-36" target="4xEq2jijBpp5c2q7PLIP-37" edge="1">
          <mxGeometry relative="1" as="geometry" />
        </mxCell>
        <mxCell id="4xEq2jijBpp5c2q7PLIP-36" value="System Test&lt;br&gt;customer base" style="rounded=0;whiteSpace=wrap;html=1;fontStyle=1" parent="1" vertex="1">
          <mxGeometry x="510" y="210" width="100" height="60" as="geometry" />
        </mxCell>
        <mxCell id="4xEq2jijBpp5c2q7PLIP-37" value="Test Summary by dummy customer" style="rounded=0;whiteSpace=wrap;html=1;fontStyle=1" parent="1" vertex="1">
          <mxGeometry x="510" y="290" width="100" height="60" as="geometry" />
        </mxCell>
        <mxCell id="4xEq2jijBpp5c2q7PLIP-38" value="" style="edgeStyle=orthogonalEdgeStyle;rounded=0;orthogonalLoop=1;jettySize=auto;html=1;endArrow=none;endFill=0;fontStyle=1" parent="1" source="4xEq2jijBpp5c2q7PLIP-39" target="4xEq2jijBpp5c2q7PLIP-40" edge="1">
          <mxGeometry relative="1" as="geometry" />
        </mxCell>
        <mxCell id="4xEq2jijBpp5c2q7PLIP-39" value="3D model/ Prototype&amp;nbsp;" style="rounded=0;whiteSpace=wrap;html=1;fontStyle=1" parent="1" vertex="1">
          <mxGeometry x="400" y="210" width="90" height="60" as="geometry" />
        </mxCell>
        <mxCell id="4xEq2jijBpp5c2q7PLIP-40" value="Model Review by owner/ supervisor&amp;nbsp;" style="rounded=0;whiteSpace=wrap;html=1;fontStyle=1" parent="1" vertex="1">
          <mxGeometry x="400" y="290" width="90" height="60" as="geometry" />
        </mxCell>
        <mxCell id="4xEq2jijBpp5c2q7PLIP-41" value="" style="edgeStyle=orthogonalEdgeStyle;rounded=0;orthogonalLoop=1;jettySize=auto;html=1;endArrow=none;endFill=0;fontStyle=1" parent="1" source="4xEq2jijBpp5c2q7PLIP-42" target="4xEq2jijBpp5c2q7PLIP-44" edge="1">
          <mxGeometry relative="1" as="geometry" />
        </mxCell>
        <mxCell id="4xEq2jijBpp5c2q7PLIP-42" value="Architecture&lt;br&gt;Interior Design&amp;nbsp;" style="rounded=0;whiteSpace=wrap;html=1;fontStyle=1" parent="1" vertex="1">
          <mxGeometry x="290" y="210" width="90" height="60" as="geometry" />
        </mxCell>
        <mxCell id="4xEq2jijBpp5c2q7PLIP-43" value="" style="edgeStyle=orthogonalEdgeStyle;rounded=0;orthogonalLoop=1;jettySize=auto;html=1;endArrow=none;endFill=0;fontStyle=1" parent="1" source="4xEq2jijBpp5c2q7PLIP-44" target="4xEq2jijBpp5c2q7PLIP-45" edge="1">
          <mxGeometry relative="1" as="geometry" />
        </mxCell>
        <mxCell id="4xEq2jijBpp5c2q7PLIP-44" value="Design review by owner/ supervisor&amp;nbsp;" style="rounded=0;whiteSpace=wrap;html=1;fontStyle=1" parent="1" vertex="1">
          <mxGeometry x="290" y="290" width="90" height="60" as="geometry" />
        </mxCell>
        <mxCell id="4xEq2jijBpp5c2q7PLIP-45" value="Detailed Project Development&lt;br&gt;Floor plan" style="rounded=0;whiteSpace=wrap;html=1;fontStyle=1" parent="1" vertex="1">
          <mxGeometry x="290" y="370" width="90" height="60" as="geometry" />
        </mxCell>
        <mxCell id="4xEq2jijBpp5c2q7PLIP-46" value="" style="edgeStyle=orthogonalEdgeStyle;rounded=0;orthogonalLoop=1;jettySize=auto;html=1;endArrow=none;endFill=0;fontStyle=1" parent="1" source="4xEq2jijBpp5c2q7PLIP-47" target="4xEq2jijBpp5c2q7PLIP-49" edge="1">
          <mxGeometry relative="1" as="geometry" />
        </mxCell>
        <mxCell id="4xEq2jijBpp5c2q7PLIP-47" value="Project Management Plan (Charter)" style="rounded=0;whiteSpace=wrap;html=1;fontStyle=1" parent="1" vertex="1">
          <mxGeometry x="180" y="210" width="90" height="60" as="geometry" />
        </mxCell>
        <mxCell id="4xEq2jijBpp5c2q7PLIP-48" value="" style="edgeStyle=orthogonalEdgeStyle;rounded=0;orthogonalLoop=1;jettySize=auto;html=1;endArrow=none;endFill=0;fontStyle=1" parent="1" source="4xEq2jijBpp5c2q7PLIP-49" target="4xEq2jijBpp5c2q7PLIP-51" edge="1">
          <mxGeometry relative="1" as="geometry" />
        </mxCell>
        <mxCell id="4xEq2jijBpp5c2q7PLIP-49" value="Functional Requirements&amp;nbsp;&lt;br&gt;Plumbing, electric connection, customer demand" style="rounded=0;whiteSpace=wrap;html=1;fontStyle=1" parent="1" vertex="1">
          <mxGeometry x="180" y="290" width="90" height="90" as="geometry" />
        </mxCell>
        <mxCell id="4xEq2jijBpp5c2q7PLIP-50" value="" style="edgeStyle=orthogonalEdgeStyle;rounded=0;orthogonalLoop=1;jettySize=auto;html=1;endArrow=none;endFill=0;fontStyle=1" parent="1" source="4xEq2jijBpp5c2q7PLIP-51" target="4xEq2jijBpp5c2q7PLIP-52" edge="1">
          <mxGeometry relative="1" as="geometry" />
        </mxCell>
        <mxCell id="4xEq2jijBpp5c2q7PLIP-51" value="Technical Requirements&amp;nbsp;&lt;br&gt;Raw Materials, items&amp;nbsp;" style="rounded=0;whiteSpace=wrap;html=1;fontStyle=1" parent="1" vertex="1">
          <mxGeometry x="180" y="390" width="90" height="60" as="geometry" />
        </mxCell>
        <mxCell id="4xEq2jijBpp5c2q7PLIP-52" value="Requirements review and approval by municipality&amp;nbsp;" style="rounded=0;whiteSpace=wrap;html=1;fontStyle=1" parent="1" vertex="1">
          <mxGeometry x="180" y="470" width="90" height="60" as="geometry" />
        </mxCell>
        <mxCell id="4xEq2jijBpp5c2q7PLIP-53" value="Promotion" style="rounded=0;whiteSpace=wrap;html=1;fontStyle=1" parent="1" vertex="1">
          <mxGeometry x="730" y="290" width="100" height="60" as="geometry" />
        </mxCell>
      </root>
    </mxGraphModel>
  </diagram>
</mxfile>
